<mxfile host="app.diagrams.net" modified="2021-04-17T14:11:13.432Z" agent="5.0 (Macintosh)" etag="z5lrbRjRCZiXmNj_Y-6D" version="14.5.10" type="github">
  <diagram id="cMrLkZuDbpsNjbVXNRgZ" name="Page-1">
    <mxGraphModel dx="925" dy="524" grid="1" gridSize="10" guides="1" tooltips="1" connect="1" arrows="1" fold="1" page="1" pageScale="1" pageWidth="827" pageHeight="1169" math="0" shadow="0">
      <root>
        <mxCell id="0" />
        <mxCell id="1" parent="0" />
        <mxCell id="avtAG6ENz1xNzW3Yo495-2" value="0" style="ellipse;whiteSpace=wrap;html=1;fontSize=40;fontStyle=1" vertex="1" parent="1">
          <mxGeometry x="334" y="100" width="100" height="80" as="geometry" />
        </mxCell>
        <mxCell id="avtAG6ENz1xNzW3Yo495-5" value="" style="endArrow=classic;html=1;exitX=0.99;exitY=0.638;exitDx=0;exitDy=0;exitPerimeter=0;" edge="1" parent="1" source="avtAG6ENz1xNzW3Yo495-2" target="avtAG6ENz1xNzW3Yo495-12">
          <mxGeometry width="50" height="50" relative="1" as="geometry">
            <mxPoint x="400" y="360" as="sourcePoint" />
            <mxPoint x="384.51626888924034" y="287.3788657779385" as="targetPoint" />
          </mxGeometry>
        </mxCell>
        <mxCell id="avtAG6ENz1xNzW3Yo495-6" value="&lt;b&gt;&lt;font style=&quot;font-size: 40px&quot;&gt;2&lt;/font&gt;&lt;/b&gt;" style="ellipse;whiteSpace=wrap;html=1;" vertex="1" parent="1">
          <mxGeometry x="590" y="250" width="100" height="80" as="geometry" />
        </mxCell>
        <mxCell id="avtAG6ENz1xNzW3Yo495-7" value="3" style="ellipse;whiteSpace=wrap;html=1;fontSize=40;fontStyle=1" vertex="1" parent="1">
          <mxGeometry x="600" y="400" width="100" height="80" as="geometry" />
        </mxCell>
        <mxCell id="avtAG6ENz1xNzW3Yo495-8" value="6" style="ellipse;whiteSpace=wrap;html=1;fontSize=40;fontStyle=1" vertex="1" parent="1">
          <mxGeometry x="160" y="550" width="100" height="80" as="geometry" />
        </mxCell>
        <mxCell id="avtAG6ENz1xNzW3Yo495-9" value="7" style="ellipse;whiteSpace=wrap;html=1;fontSize=40;fontStyle=1" vertex="1" parent="1">
          <mxGeometry x="100" y="410" width="100" height="80" as="geometry" />
        </mxCell>
        <mxCell id="avtAG6ENz1xNzW3Yo495-10" value="8" style="ellipse;whiteSpace=wrap;html=1;fontSize=40;fontStyle=1" vertex="1" parent="1">
          <mxGeometry x="110" y="250" width="100" height="80" as="geometry" />
        </mxCell>
        <mxCell id="avtAG6ENz1xNzW3Yo495-11" value="9" style="ellipse;whiteSpace=wrap;html=1;fontSize=40;fontStyle=1" vertex="1" parent="1">
          <mxGeometry x="190" y="150" width="100" height="80" as="geometry" />
        </mxCell>
        <mxCell id="avtAG6ENz1xNzW3Yo495-12" value="&lt;b&gt;&lt;font style=&quot;font-size: 40px&quot;&gt;1&lt;/font&gt;&lt;/b&gt;" style="ellipse;whiteSpace=wrap;html=1;" vertex="1" parent="1">
          <mxGeometry x="500" y="170" width="100" height="80" as="geometry" />
        </mxCell>
        <mxCell id="avtAG6ENz1xNzW3Yo495-13" value="4" style="ellipse;whiteSpace=wrap;html=1;fontSize=40;fontStyle=1" vertex="1" parent="1">
          <mxGeometry x="540" y="520" width="100" height="80" as="geometry" />
        </mxCell>
        <mxCell id="avtAG6ENz1xNzW3Yo495-15" value="5" style="ellipse;whiteSpace=wrap;html=1;fontSize=40;fontStyle=1" vertex="1" parent="1">
          <mxGeometry x="350" y="610" width="100" height="80" as="geometry" />
        </mxCell>
        <mxCell id="avtAG6ENz1xNzW3Yo495-16" value="" style="endArrow=classic;html=1;exitX=0.99;exitY=0.638;exitDx=0;exitDy=0;exitPerimeter=0;" edge="1" parent="1">
          <mxGeometry width="50" height="50" relative="1" as="geometry">
            <mxPoint x="580" y="239.99999999999994" as="sourcePoint" />
            <mxPoint x="610" y="260" as="targetPoint" />
          </mxGeometry>
        </mxCell>
        <mxCell id="avtAG6ENz1xNzW3Yo495-18" value="" style="endArrow=classic;html=1;exitX=0.5;exitY=1;exitDx=0;exitDy=0;" edge="1" parent="1" source="avtAG6ENz1xNzW3Yo495-6">
          <mxGeometry width="50" height="50" relative="1" as="geometry">
            <mxPoint x="590" y="250" as="sourcePoint" />
            <mxPoint x="650" y="396" as="targetPoint" />
            <Array as="points" />
          </mxGeometry>
        </mxCell>
        <mxCell id="avtAG6ENz1xNzW3Yo495-19" value="" style="endArrow=classic;html=1;exitX=0.5;exitY=1;exitDx=0;exitDy=0;entryX=0.738;entryY=0.038;entryDx=0;entryDy=0;entryPerimeter=0;" edge="1" parent="1" target="avtAG6ENz1xNzW3Yo495-13">
          <mxGeometry width="50" height="50" relative="1" as="geometry">
            <mxPoint x="636.8" y="480" as="sourcePoint" />
            <mxPoint x="640" y="546" as="targetPoint" />
            <Array as="points" />
          </mxGeometry>
        </mxCell>
        <mxCell id="avtAG6ENz1xNzW3Yo495-22" value="" style="endArrow=classic;html=1;exitX=0.244;exitY=0.046;exitDx=0;exitDy=0;entryX=0.297;entryY=1.031;entryDx=0;entryDy=0;entryPerimeter=0;exitPerimeter=0;" edge="1" parent="1" source="avtAG6ENz1xNzW3Yo495-9" target="avtAG6ENz1xNzW3Yo495-10">
          <mxGeometry width="50" height="50" relative="1" as="geometry">
            <mxPoint x="229.99999999999997" y="350" as="sourcePoint" />
            <mxPoint x="233.20000000000002" y="416" as="targetPoint" />
            <Array as="points" />
          </mxGeometry>
        </mxCell>
        <mxCell id="avtAG6ENz1xNzW3Yo495-23" value="" style="endArrow=classic;html=1;exitX=0.5;exitY=1;exitDx=0;exitDy=0;entryX=1.026;entryY=0.325;entryDx=0;entryDy=0;entryPerimeter=0;" edge="1" parent="1" target="avtAG6ENz1xNzW3Yo495-15">
          <mxGeometry width="50" height="50" relative="1" as="geometry">
            <mxPoint x="570.0000000000001" y="600" as="sourcePoint" />
            <mxPoint x="573.2000000000002" y="666" as="targetPoint" />
            <Array as="points" />
          </mxGeometry>
        </mxCell>
        <mxCell id="avtAG6ENz1xNzW3Yo495-24" value="" style="endArrow=classic;html=1;exitX=0.838;exitY=0.046;exitDx=0;exitDy=0;entryX=0.034;entryY=0.362;entryDx=0;entryDy=0;entryPerimeter=0;exitPerimeter=0;" edge="1" parent="1" source="avtAG6ENz1xNzW3Yo495-11" target="avtAG6ENz1xNzW3Yo495-2">
          <mxGeometry width="50" height="50" relative="1" as="geometry">
            <mxPoint x="320.0000000000001" y="210" as="sourcePoint" />
            <mxPoint x="323.20000000000016" y="276" as="targetPoint" />
            <Array as="points" />
          </mxGeometry>
        </mxCell>
        <mxCell id="avtAG6ENz1xNzW3Yo495-25" value="" style="endArrow=classic;html=1;exitX=0;exitY=0.5;exitDx=0;exitDy=0;entryX=0.95;entryY=0.825;entryDx=0;entryDy=0;entryPerimeter=0;" edge="1" parent="1" source="avtAG6ENz1xNzW3Yo495-15" target="avtAG6ENz1xNzW3Yo495-8">
          <mxGeometry width="50" height="50" relative="1" as="geometry">
            <mxPoint x="290.0000000000001" y="490" as="sourcePoint" />
            <mxPoint x="293.20000000000016" y="556" as="targetPoint" />
            <Array as="points" />
          </mxGeometry>
        </mxCell>
        <mxCell id="avtAG6ENz1xNzW3Yo495-26" value="" style="endArrow=classic;html=1;exitX=1;exitY=0;exitDx=0;exitDy=0;entryX=0.079;entryY=0.788;entryDx=0;entryDy=0;entryPerimeter=0;" edge="1" parent="1" source="avtAG6ENz1xNzW3Yo495-15" target="avtAG6ENz1xNzW3Yo495-13">
          <mxGeometry width="50" height="50" relative="1" as="geometry">
            <mxPoint x="450.0000000000001" y="480" as="sourcePoint" />
            <mxPoint x="453.20000000000016" y="546" as="targetPoint" />
            <Array as="points" />
          </mxGeometry>
        </mxCell>
        <mxCell id="avtAG6ENz1xNzW3Yo495-27" value="" style="endArrow=classic;html=1;exitX=0.5;exitY=0;exitDx=0;exitDy=0;" edge="1" parent="1" source="avtAG6ENz1xNzW3Yo495-13" target="avtAG6ENz1xNzW3Yo495-7">
          <mxGeometry width="50" height="50" relative="1" as="geometry">
            <mxPoint x="548.4000000000001" y="440" as="sourcePoint" />
            <mxPoint x="551.6000000000001" y="506" as="targetPoint" />
            <Array as="points" />
          </mxGeometry>
        </mxCell>
        <mxCell id="avtAG6ENz1xNzW3Yo495-28" value="" style="endArrow=classic;html=1;exitX=0.315;exitY=0.024;exitDx=0;exitDy=0;exitPerimeter=0;" edge="1" parent="1" source="avtAG6ENz1xNzW3Yo495-7">
          <mxGeometry width="50" height="50" relative="1" as="geometry">
            <mxPoint x="560.0000000000001" y="374" as="sourcePoint" />
            <mxPoint x="632" y="335" as="targetPoint" />
            <Array as="points" />
          </mxGeometry>
        </mxCell>
        <mxCell id="avtAG6ENz1xNzW3Yo495-29" value="" style="endArrow=classic;html=1;exitX=0.062;exitY=0.281;exitDx=0;exitDy=0;exitPerimeter=0;" edge="1" parent="1" source="avtAG6ENz1xNzW3Yo495-6">
          <mxGeometry width="50" height="50" relative="1" as="geometry">
            <mxPoint x="588.4000000000001" y="270" as="sourcePoint" />
            <mxPoint x="560" y="251" as="targetPoint" />
            <Array as="points" />
          </mxGeometry>
        </mxCell>
        <mxCell id="avtAG6ENz1xNzW3Yo495-30" value="" style="endArrow=classic;html=1;exitX=-0.038;exitY=0.413;exitDx=0;exitDy=0;entryX=1;entryY=1;entryDx=0;entryDy=0;exitPerimeter=0;" edge="1" parent="1" source="avtAG6ENz1xNzW3Yo495-12" target="avtAG6ENz1xNzW3Yo495-2">
          <mxGeometry width="50" height="50" relative="1" as="geometry">
            <mxPoint x="500.0000000000001" y="220" as="sourcePoint" />
            <mxPoint x="503.20000000000016" y="286" as="targetPoint" />
            <Array as="points" />
          </mxGeometry>
        </mxCell>
        <mxCell id="avtAG6ENz1xNzW3Yo495-32" value="" style="endArrow=classic;html=1;exitX=0.415;exitY=1.016;exitDx=0;exitDy=0;entryX=0.956;entryY=0.178;entryDx=0;entryDy=0;entryPerimeter=0;exitPerimeter=0;" edge="1" parent="1" source="avtAG6ENz1xNzW3Yo495-11" target="avtAG6ENz1xNzW3Yo495-10">
          <mxGeometry width="50" height="50" relative="1" as="geometry">
            <mxPoint x="250.00000000000009" y="250" as="sourcePoint" />
            <mxPoint x="253.20000000000013" y="316" as="targetPoint" />
            <Array as="points" />
          </mxGeometry>
        </mxCell>
        <mxCell id="avtAG6ENz1xNzW3Yo495-33" value="" style="endArrow=classic;html=1;entryX=0.597;entryY=0.016;entryDx=0;entryDy=0;entryPerimeter=0;exitX=0.591;exitY=1.016;exitDx=0;exitDy=0;exitPerimeter=0;" edge="1" parent="1" source="avtAG6ENz1xNzW3Yo495-10" target="avtAG6ENz1xNzW3Yo495-9">
          <mxGeometry width="50" height="50" relative="1" as="geometry">
            <mxPoint x="210" y="344" as="sourcePoint" />
            <mxPoint x="210.00000000000014" y="410" as="targetPoint" />
            <Array as="points" />
          </mxGeometry>
        </mxCell>
        <mxCell id="avtAG6ENz1xNzW3Yo495-35" value="" style="endArrow=classic;html=1;exitX=0.421;exitY=-0.013;exitDx=0;exitDy=0;entryX=0.7;entryY=1;entryDx=0;entryDy=0;entryPerimeter=0;exitPerimeter=0;" edge="1" parent="1" source="avtAG6ENz1xNzW3Yo495-8" target="avtAG6ENz1xNzW3Yo495-9">
          <mxGeometry width="50" height="50" relative="1" as="geometry">
            <mxPoint x="286.80000000000007" y="454" as="sourcePoint" />
            <mxPoint x="290.0000000000001" y="520" as="targetPoint" />
            <Array as="points" />
          </mxGeometry>
        </mxCell>
        <mxCell id="avtAG6ENz1xNzW3Yo495-36" value="" style="endArrow=classic;html=1;exitX=0.35;exitY=1.046;exitDx=0;exitDy=0;entryX=0;entryY=0;entryDx=0;entryDy=0;exitPerimeter=0;" edge="1" parent="1" source="avtAG6ENz1xNzW3Yo495-9" target="avtAG6ENz1xNzW3Yo495-8">
          <mxGeometry width="50" height="50" relative="1" as="geometry">
            <mxPoint x="250.00000000000009" y="470" as="sourcePoint" />
            <mxPoint x="253.20000000000013" y="536" as="targetPoint" />
            <Array as="points" />
          </mxGeometry>
        </mxCell>
        <mxCell id="avtAG6ENz1xNzW3Yo495-37" value="" style="endArrow=classic;html=1;exitX=1;exitY=0.5;exitDx=0;exitDy=0;" edge="1" parent="1" source="avtAG6ENz1xNzW3Yo495-8" target="avtAG6ENz1xNzW3Yo495-15">
          <mxGeometry width="50" height="50" relative="1" as="geometry">
            <mxPoint x="320.0000000000001" y="534" as="sourcePoint" />
            <mxPoint x="323.20000000000016" y="600" as="targetPoint" />
            <Array as="points" />
          </mxGeometry>
        </mxCell>
        <mxCell id="avtAG6ENz1xNzW3Yo495-38" value="" style="endArrow=classic;html=1;exitX=0.5;exitY=1;exitDx=0;exitDy=0;shape=flexArrow;fillColor=#a20025;strokeColor=#6F0000;" edge="1" parent="1" target="avtAG6ENz1xNzW3Yo495-2">
          <mxGeometry width="50" height="50" relative="1" as="geometry">
            <mxPoint x="320.0000000000001" y="40" as="sourcePoint" />
            <mxPoint x="323.20000000000016" y="106" as="targetPoint" />
            <Array as="points" />
          </mxGeometry>
        </mxCell>
        <mxCell id="avtAG6ENz1xNzW3Yo495-39" value="" style="endArrow=classic;html=1;entryX=1;entryY=0.5;entryDx=0;entryDy=0;" edge="1" parent="1" source="avtAG6ENz1xNzW3Yo495-2" target="avtAG6ENz1xNzW3Yo495-11">
          <mxGeometry width="50" height="50" relative="1" as="geometry">
            <mxPoint x="290" y="190" as="sourcePoint" />
            <mxPoint x="330" y="240" as="targetPoint" />
            <Array as="points" />
          </mxGeometry>
        </mxCell>
        <mxCell id="avtAG6ENz1xNzW3Yo495-40" value="" style="endArrow=classic;html=1;exitX=0.5;exitY=0;exitDx=0;exitDy=0;" edge="1" parent="1" source="avtAG6ENz1xNzW3Yo495-10" target="avtAG6ENz1xNzW3Yo495-11">
          <mxGeometry width="50" height="50" relative="1" as="geometry">
            <mxPoint x="260.0000000000001" y="240" as="sourcePoint" />
            <mxPoint x="263.20000000000016" y="306" as="targetPoint" />
            <Array as="points" />
          </mxGeometry>
        </mxCell>
        <mxCell id="avtAG6ENz1xNzW3Yo495-42" value="UP" style="text;html=1;strokeColor=none;fillColor=none;align=center;verticalAlign=middle;whiteSpace=wrap;rounded=0;rotation=-15;fontSize=15;fontStyle=1" vertex="1" parent="1">
          <mxGeometry x="280" y="120" width="40" height="20" as="geometry" />
        </mxCell>
        <mxCell id="avtAG6ENz1xNzW3Yo495-43" value="UP" style="text;html=1;strokeColor=none;fillColor=none;align=center;verticalAlign=middle;whiteSpace=wrap;rounded=0;rotation=-60;fontSize=15;fontStyle=1" vertex="1" parent="1">
          <mxGeometry x="140" y="210" width="40" height="20" as="geometry" />
        </mxCell>
        <mxCell id="avtAG6ENz1xNzW3Yo495-44" value="UP" style="text;html=1;strokeColor=none;fillColor=none;align=center;verticalAlign=middle;whiteSpace=wrap;rounded=0;rotation=-85;fontSize=15;fontStyle=1" vertex="1" parent="1">
          <mxGeometry x="90" y="360" width="40" height="20" as="geometry" />
        </mxCell>
        <mxCell id="avtAG6ENz1xNzW3Yo495-45" value="UP" style="text;html=1;strokeColor=none;fillColor=none;align=center;verticalAlign=middle;whiteSpace=wrap;rounded=0;rotation=-120;fontSize=15;fontStyle=1" vertex="1" parent="1">
          <mxGeometry x="120" y="520" width="40" height="20" as="geometry" />
        </mxCell>
        <mxCell id="avtAG6ENz1xNzW3Yo495-46" value="UP" style="text;html=1;strokeColor=none;fillColor=none;align=center;verticalAlign=middle;whiteSpace=wrap;rounded=0;rotation=-150;fontSize=15;fontStyle=1" vertex="1" parent="1">
          <mxGeometry x="270" y="640" width="40" height="20" as="geometry" />
        </mxCell>
        <mxCell id="avtAG6ENz1xNzW3Yo495-47" value="UP" style="text;html=1;strokeColor=none;fillColor=none;align=center;verticalAlign=middle;whiteSpace=wrap;rounded=0;rotation=-195;fontSize=15;fontStyle=1" vertex="1" parent="1">
          <mxGeometry x="510" y="620" width="40" height="20" as="geometry" />
        </mxCell>
        <mxCell id="avtAG6ENz1xNzW3Yo495-48" value="UP" style="text;html=1;strokeColor=none;fillColor=none;align=center;verticalAlign=middle;whiteSpace=wrap;rounded=0;rotation=120;fontSize=15;fontStyle=1" vertex="1" parent="1">
          <mxGeometry x="620" y="500" width="40" height="20" as="geometry" />
        </mxCell>
        <mxCell id="avtAG6ENz1xNzW3Yo495-49" value="UP" style="text;html=1;strokeColor=none;fillColor=none;align=center;verticalAlign=middle;whiteSpace=wrap;rounded=0;rotation=75;fontSize=16;fontStyle=1" vertex="1" parent="1">
          <mxGeometry x="640" y="350" width="40" height="20" as="geometry" />
        </mxCell>
        <mxCell id="avtAG6ENz1xNzW3Yo495-50" value="UP" style="text;html=1;strokeColor=none;fillColor=none;align=center;verticalAlign=middle;whiteSpace=wrap;rounded=0;rotation=45;fontSize=15;fontStyle=1" vertex="1" parent="1">
          <mxGeometry x="590" y="230" width="40" height="20" as="geometry" />
        </mxCell>
        <mxCell id="avtAG6ENz1xNzW3Yo495-51" value="UP" style="text;html=1;strokeColor=none;fillColor=none;align=center;verticalAlign=middle;whiteSpace=wrap;rounded=0;rotation=30;fontSize=15;fontStyle=1" vertex="1" parent="1">
          <mxGeometry x="460" y="150" width="40" height="20" as="geometry" />
        </mxCell>
        <mxCell id="avtAG6ENz1xNzW3Yo495-55" value="&lt;font style=&quot;font-size: 15px;&quot;&gt;UP&lt;/font&gt;" style="text;html=1;strokeColor=none;fillColor=none;align=center;verticalAlign=middle;whiteSpace=wrap;rounded=0;fontSize=15;fontStyle=1;rotation=100;" vertex="1" parent="1">
          <mxGeometry x="160" y="350" width="40" height="20" as="geometry" />
        </mxCell>
        <mxCell id="avtAG6ENz1xNzW3Yo495-56" value="" style="endArrow=none;html=1;strokeColor=#000000;exitX=0.105;exitY=-0.035;exitDx=0;exitDy=0;exitPerimeter=0;entryX=0.75;entryY=0;entryDx=0;entryDy=0;" edge="1" parent="1" source="avtAG6ENz1xNzW3Yo495-55" target="avtAG6ENz1xNzW3Yo495-55">
          <mxGeometry width="50" height="50" relative="1" as="geometry">
            <mxPoint x="200" y="350.41" as="sourcePoint" />
            <mxPoint x="240" y="350" as="targetPoint" />
          </mxGeometry>
        </mxCell>
        <mxCell id="avtAG6ENz1xNzW3Yo495-60" value="&lt;font style=&quot;font-size: 15px;&quot;&gt;UP&lt;/font&gt;" style="text;html=1;strokeColor=none;fillColor=none;align=center;verticalAlign=middle;whiteSpace=wrap;rounded=0;fontSize=15;fontStyle=1;rotation=-150;" vertex="1" parent="1">
          <mxGeometry x="430" y="190" width="40" height="20" as="geometry" />
        </mxCell>
        <mxCell id="avtAG6ENz1xNzW3Yo495-61" value="" style="endArrow=none;html=1;strokeColor=#000000;entryX=0;entryY=0;entryDx=0;entryDy=0;exitX=1;exitY=0;exitDx=0;exitDy=0;" edge="1" parent="1" source="avtAG6ENz1xNzW3Yo495-60" target="avtAG6ENz1xNzW3Yo495-60">
          <mxGeometry width="50" height="50" relative="1" as="geometry">
            <mxPoint x="420" y="200" as="sourcePoint" />
            <mxPoint x="460" y="229.42999999999998" as="targetPoint" />
            <Array as="points">
              <mxPoint x="440" y="210" />
            </Array>
          </mxGeometry>
        </mxCell>
        <mxCell id="avtAG6ENz1xNzW3Yo495-62" value="&lt;font style=&quot;font-size: 15px;&quot;&gt;UP&lt;/font&gt;" style="text;html=1;strokeColor=none;fillColor=none;align=center;verticalAlign=middle;whiteSpace=wrap;rounded=0;fontSize=15;fontStyle=1;rotation=-150;" vertex="1" parent="1">
          <mxGeometry x="550" y="270" width="40" height="20" as="geometry" />
        </mxCell>
        <mxCell id="avtAG6ENz1xNzW3Yo495-63" value="" style="endArrow=none;html=1;strokeColor=#000000;exitX=1;exitY=0;exitDx=0;exitDy=0;" edge="1" parent="1" source="avtAG6ENz1xNzW3Yo495-62">
          <mxGeometry width="50" height="50" relative="1" as="geometry">
            <mxPoint x="540" y="300.4100000000001" as="sourcePoint" />
            <mxPoint x="580" y="300" as="targetPoint" />
          </mxGeometry>
        </mxCell>
        <mxCell id="avtAG6ENz1xNzW3Yo495-64" value="&lt;font style=&quot;font-size: 15px;&quot;&gt;UP&lt;/font&gt;" style="text;html=1;strokeColor=none;fillColor=none;align=center;verticalAlign=middle;whiteSpace=wrap;rounded=0;fontSize=15;fontStyle=1;rotation=-60;" vertex="1" parent="1">
          <mxGeometry x="570" y="480" width="40" height="20" as="geometry" />
        </mxCell>
        <mxCell id="avtAG6ENz1xNzW3Yo495-65" value="" style="endArrow=none;html=1;strokeColor=#000000;exitX=0.25;exitY=0;exitDx=0;exitDy=0;" edge="1" parent="1" source="avtAG6ENz1xNzW3Yo495-64">
          <mxGeometry width="50" height="50" relative="1" as="geometry">
            <mxPoint x="550" y="470.4100000000001" as="sourcePoint" />
            <mxPoint x="590" y="470" as="targetPoint" />
          </mxGeometry>
        </mxCell>
        <mxCell id="avtAG6ENz1xNzW3Yo495-67" value="&lt;font style=&quot;font-size: 15px;&quot;&gt;UP&lt;/font&gt;" style="text;html=1;strokeColor=none;fillColor=none;align=center;verticalAlign=middle;whiteSpace=wrap;rounded=0;fontSize=15;fontStyle=1;rotation=-210;" vertex="1" parent="1">
          <mxGeometry x="310" y="180" width="40" height="20" as="geometry" />
        </mxCell>
        <mxCell id="avtAG6ENz1xNzW3Yo495-68" value="" style="endArrow=none;html=1;strokeColor=#000000;entryX=0;entryY=0.25;entryDx=0;entryDy=0;exitX=0.75;exitY=0;exitDx=0;exitDy=0;" edge="1" parent="1" source="avtAG6ENz1xNzW3Yo495-67" target="avtAG6ENz1xNzW3Yo495-67">
          <mxGeometry width="50" height="50" relative="1" as="geometry">
            <mxPoint x="330" y="220.1200000000001" as="sourcePoint" />
            <mxPoint x="370" y="219.71" as="targetPoint" />
          </mxGeometry>
        </mxCell>
        <mxCell id="avtAG6ENz1xNzW3Yo495-69" value="&lt;font style=&quot;font-size: 15px;&quot;&gt;UP&lt;/font&gt;" style="text;html=1;strokeColor=none;fillColor=none;align=center;verticalAlign=middle;whiteSpace=wrap;rounded=0;fontSize=15;fontStyle=1;rotation=-90;" vertex="1" parent="1">
          <mxGeometry x="600" y="361" width="40" height="20" as="geometry" />
        </mxCell>
        <mxCell id="avtAG6ENz1xNzW3Yo495-70" value="" style="endArrow=none;html=1;strokeColor=#000000;exitX=0.25;exitY=0;exitDx=0;exitDy=0;" edge="1" parent="1" source="avtAG6ENz1xNzW3Yo495-69">
          <mxGeometry width="50" height="50" relative="1" as="geometry">
            <mxPoint x="580" y="361" as="sourcePoint" />
            <mxPoint x="610" y="361" as="targetPoint" />
          </mxGeometry>
        </mxCell>
        <mxCell id="avtAG6ENz1xNzW3Yo495-72" value="&lt;font style=&quot;font-size: 15px;&quot;&gt;UP&lt;/font&gt;" style="text;html=1;strokeColor=none;fillColor=none;align=center;verticalAlign=middle;whiteSpace=wrap;rounded=0;fontSize=15;fontStyle=1;rotation=60;" vertex="1" parent="1">
          <mxGeometry x="180" y="510" width="40" height="20" as="geometry" />
        </mxCell>
        <mxCell id="avtAG6ENz1xNzW3Yo495-73" value="" style="endArrow=none;html=1;strokeColor=#000000;exitX=0.167;exitY=-0.09;exitDx=0;exitDy=0;exitPerimeter=0;entryX=0.75;entryY=0;entryDx=0;entryDy=0;" edge="1" parent="1" source="avtAG6ENz1xNzW3Yo495-72" target="avtAG6ENz1xNzW3Yo495-72">
          <mxGeometry width="50" height="50" relative="1" as="geometry">
            <mxPoint x="200" y="509.8400000000001" as="sourcePoint" />
            <mxPoint x="240" y="509.43" as="targetPoint" />
          </mxGeometry>
        </mxCell>
        <mxCell id="avtAG6ENz1xNzW3Yo495-74" value="&lt;font style=&quot;font-size: 15px;&quot;&gt;UP&lt;/font&gt;" style="text;html=1;strokeColor=none;fillColor=none;align=center;verticalAlign=middle;whiteSpace=wrap;rounded=0;fontSize=15;fontStyle=1;rotation=30;" vertex="1" parent="1">
          <mxGeometry x="290" y="585" width="40" height="20" as="geometry" />
        </mxCell>
        <mxCell id="avtAG6ENz1xNzW3Yo495-75" value="" style="endArrow=none;html=1;strokeColor=#000000;entryX=0.873;entryY=-0.022;entryDx=0;entryDy=0;entryPerimeter=0;" edge="1" parent="1" target="avtAG6ENz1xNzW3Yo495-74">
          <mxGeometry width="50" height="50" relative="1" as="geometry">
            <mxPoint x="300" y="580.4100000000001" as="sourcePoint" />
            <mxPoint x="340" y="580" as="targetPoint" />
          </mxGeometry>
        </mxCell>
        <mxCell id="avtAG6ENz1xNzW3Yo495-76" value="&lt;font style=&quot;font-size: 15px;&quot;&gt;UP&lt;/font&gt;" style="text;html=1;strokeColor=none;fillColor=none;align=center;verticalAlign=middle;whiteSpace=wrap;rounded=0;fontSize=15;fontStyle=1;rotation=-15;" vertex="1" parent="1">
          <mxGeometry x="460" y="580" width="40" height="20" as="geometry" />
        </mxCell>
        <mxCell id="avtAG6ENz1xNzW3Yo495-77" value="" style="endArrow=none;html=1;strokeColor=#000000;exitX=0;exitY=0;exitDx=0;exitDy=0;entryX=0.898;entryY=0.092;entryDx=0;entryDy=0;entryPerimeter=0;" edge="1" parent="1" source="avtAG6ENz1xNzW3Yo495-76" target="avtAG6ENz1xNzW3Yo495-76">
          <mxGeometry width="50" height="50" relative="1" as="geometry">
            <mxPoint x="460" y="579.4100000000001" as="sourcePoint" />
            <mxPoint x="490" y="570" as="targetPoint" />
          </mxGeometry>
        </mxCell>
        <mxCell id="avtAG6ENz1xNzW3Yo495-78" value="&lt;font style=&quot;font-size: 15px;&quot;&gt;UP&lt;/font&gt;" style="text;html=1;strokeColor=none;fillColor=none;align=center;verticalAlign=middle;whiteSpace=wrap;rounded=0;fontSize=15;fontStyle=1;rotation=120;" vertex="1" parent="1">
          <mxGeometry x="210" y="240" width="40" height="20" as="geometry" />
        </mxCell>
        <mxCell id="avtAG6ENz1xNzW3Yo495-79" value="" style="endArrow=none;html=1;strokeColor=#000000;exitX=0.25;exitY=0;exitDx=0;exitDy=0;entryX=0.896;entryY=-0.015;entryDx=0;entryDy=0;entryPerimeter=0;" edge="1" parent="1" source="avtAG6ENz1xNzW3Yo495-78" target="avtAG6ENz1xNzW3Yo495-78">
          <mxGeometry width="50" height="50" relative="1" as="geometry">
            <mxPoint x="250" y="250.41000000000008" as="sourcePoint" />
            <mxPoint x="290" y="250" as="targetPoint" />
          </mxGeometry>
        </mxCell>
      </root>
    </mxGraphModel>
  </diagram>
</mxfile>
